<?xml version="1.0" standalone="no"?>
<!DOCTYPE svg PUBLIC "-//W3C//DTD SVG 20010904//EN"
 "http://www.w3.org/TR/2001/REC-SVG-20010904/DTD/svg10.dtd">
<svg version="1.0" xmlns="http://www.w3.org/2000/svg"
 width="1280.000000pt" height="1280.000000pt" viewBox="0 0 1280.000000 1280.000000"
 preserveAspectRatio="xMidYMid meet">
<metadata>
Created by potrace 1.15, written by Peter Selinger 2001-2017
</metadata>
<g transform="translate(0.000000,1280.000000) scale(0.100000,-0.100000)"
fill="#000000" stroke="none">
<path d="M6110 12794 c-683 -44 -1157 -131 -1720 -315 -1663 -545 -3050 -1777
-3789 -3364 -326 -701 -511 -1404 -583 -2215 -16 -190 -16 -810 0 -1000 72
-811 257 -1514 583 -2215 877 -1883 2647 -3238 4689 -3589 398 -68 673 -90
1110 -90 361 0 507 8 805 45 1842 232 3475 1239 4514 2783 492 732 836 1590
985 2456 68 398 90 673 90 1110 0 437 -22 712 -90 1110 -353 2055 -1719 3829
-3624 4706 -664 305 -1364 490 -2120 560 -154 14 -726 26 -850 18z m-510
-6394 l0 -3200 -800 0 -800 0 0 3200 0 3200 800 0 800 0 0 -3200z m3200 0 l0
-3200 -800 0 -800 0 0 3200 0 3200 800 0 800 0 0 -3200z"/>
</g>
</svg>
